<svg width="35" height="35" viewBox="0 0 35 35" fill="none" xmlns="http://www.w3.org/2000/svg">
<path d="M17.5 0.84375C13.0825 0.84375 8.84591 2.5986 5.72225 5.72225C2.5986 8.84591 0.84375 13.0825 0.84375 17.5C0.84375 21.9175 2.5986 26.1541 5.72225 29.2777C8.84591 32.4014 13.0825 34.1562 17.5 34.1562C20.945 34.1563 24.5629 33.1184 27.1782 31.3807C27.3184 31.2876 27.4389 31.1677 27.5327 31.028C27.6266 30.8883 27.692 30.7314 27.7252 30.5664C27.7585 30.4014 27.7589 30.2315 27.7264 30.0663C27.694 29.9011 27.6294 29.744 27.5362 29.6038C27.443 29.4636 27.3232 29.3432 27.1834 29.2493C27.0437 29.1555 26.8869 29.0901 26.7219 29.0568C26.5569 29.0236 26.3869 29.0232 26.2218 29.0556C26.0566 29.088 25.8994 29.1527 25.7593 29.2459C23.5859 30.6937 20.4164 31.5938 17.5 31.5938C14.7125 31.5938 11.9876 30.7672 9.66993 29.2185C7.35223 27.6699 5.5458 25.4687 4.47907 22.8934C3.41235 20.3181 3.13325 17.4844 3.67706 14.7504C4.22087 12.0165 5.56317 9.50526 7.53421 7.53421C9.50526 5.56317 12.0165 4.22087 14.7504 3.67706C17.4844 3.13325 20.3181 3.41235 22.8934 4.47907C25.4687 5.5458 27.6699 7.35223 29.2185 9.66993C30.7672 11.9876 31.5938 14.7125 31.5938 17.5C31.5938 21.7361 29.8512 22.625 28.3906 22.625C26.93 22.625 25.1875 21.7361 25.1875 17.5V11.0938C25.1875 10.7539 25.0525 10.4281 24.8122 10.1878C24.572 9.94749 24.2461 9.8125 23.9062 9.8125C23.5664 9.8125 23.2405 9.94749 23.0003 10.1878C22.76 10.4281 22.625 10.7539 22.625 11.0938V11.776C21.4752 10.7451 20.0416 10.0844 18.5109 9.87999C16.9803 9.67554 15.4235 9.93682 14.0435 10.6298C12.6634 11.3228 11.5241 12.4153 10.7738 13.7651C10.0236 15.1149 9.69727 16.6593 9.83736 18.1972C9.97745 19.7351 10.5775 21.1951 11.5592 22.3871C12.541 23.5792 13.859 24.4478 15.3415 24.8801C16.8241 25.3123 18.4024 25.288 19.8709 24.8103C21.3395 24.3327 22.6301 23.4238 23.5747 22.2022C24.5357 24.1241 26.1933 25.1875 28.3906 25.1875C32.0005 25.1875 34.1562 22.3143 34.1562 17.5C34.1516 13.0839 32.3952 8.85005 29.2726 5.7274C26.15 2.60476 21.9161 0.848413 17.5 0.84375ZM17.5 22.625C16.4864 22.625 15.4955 22.3244 14.6527 21.7613C13.8099 21.1981 13.153 20.3977 12.7651 19.4613C12.3772 18.5248 12.2757 17.4943 12.4735 16.5002C12.6712 15.506 13.1593 14.5928 13.8761 13.8761C14.5928 13.1593 15.506 12.6712 16.5002 12.4735C17.4943 12.2757 18.5248 12.3772 19.4613 12.7651C20.3977 13.153 21.1981 13.8099 21.7613 14.6527C22.3244 15.4955 22.625 16.4864 22.625 17.5C22.625 18.8592 22.085 20.1628 21.1239 21.1239C20.1628 22.085 18.8592 22.625 17.5 22.625Z" fill="black"/>
</svg>
