<svg width="15" height="11" viewBox="0 0 15 11" fill="none" xmlns="http://www.w3.org/2000/svg">
<path d="M14.1478 1.46029L5.14779 10.4603C5.09555 10.5126 5.03351 10.5541 4.96523 10.5824C4.89694 10.6107 4.82375 10.6253 4.74982 10.6253C4.6759 10.6253 4.60271 10.6107 4.53442 10.5824C4.46613 10.5541 4.4041 10.5126 4.35186 10.4603L0.414356 6.52279C0.308808 6.41725 0.249512 6.27409 0.249512 6.12482C0.249512 5.97556 0.308808 5.8324 0.414356 5.72686C0.519904 5.62131 0.663057 5.56201 0.812324 5.56201C0.961592 5.56201 1.10475 5.62131 1.21029 5.72686L4.74982 9.26709L13.3519 0.664355C13.4574 0.558808 13.6006 0.499512 13.7498 0.499512C13.8991 0.499512 14.0422 0.558808 14.1478 0.664355C14.2533 0.769903 14.3126 0.913057 14.3126 1.06232C14.3126 1.21159 14.2533 1.35475 14.1478 1.46029Z" fill="#24FF54"/>
</svg>
