<svg width="35" height="27" viewBox="0 0 35 27" fill="none" xmlns="http://www.w3.org/2000/svg">
<path d="M32.875 0.6875H2.125C1.78519 0.6875 1.4593 0.822489 1.21902 1.06277C0.978738 1.30305 0.84375 1.62894 0.84375 1.96875V23.75C0.84375 24.4296 1.11373 25.0814 1.59429 25.562C2.07485 26.0425 2.72663 26.3125 3.40625 26.3125H31.5938C32.2734 26.3125 32.9251 26.0425 33.4057 25.562C33.8863 25.0814 34.1562 24.4296 34.1562 23.75V1.96875C34.1562 1.62894 34.0213 1.30305 33.781 1.06277C33.5407 0.822489 33.2148 0.6875 32.875 0.6875ZM17.5 14.3248L5.41941 3.25H29.5806L17.5 14.3248ZM12.809 13.5L3.40625 22.118V4.88199L12.809 13.5ZM14.7053 15.2377L16.6271 17.0074C16.8635 17.2244 17.1727 17.3448 17.4936 17.3448C17.8145 17.3448 18.1237 17.2244 18.36 17.0074L20.2819 15.2377L29.571 23.75H5.41941L14.7053 15.2377ZM22.191 13.5L31.5938 4.88039V22.1196L22.191 13.5Z" fill="black"/>
</svg>
