<svg width="36" height="36" viewBox="0 0 36 36" fill="none" xmlns="http://www.w3.org/2000/svg">
<path d="M31.6851 4.31496C29.6499 2.27699 26.9875 0.984148 24.1274 0.645069C21.2673 0.305989 18.3763 0.940447 15.9211 2.44606C13.4658 3.95168 11.5895 6.24062 10.5948 8.94354C9.60012 11.6465 9.54514 14.6057 10.4387 17.3437L1.5949 26.1875C1.35591 26.4246 1.16644 26.7068 1.03749 27.0178C0.908538 27.3287 0.842687 27.6622 0.843763 27.9989V32.5938C0.843763 33.2734 1.11374 33.9252 1.5943 34.4057C2.07486 34.8863 2.72665 35.1563 3.40626 35.1563H8.53126C8.87107 35.1563 9.19696 35.0213 9.43724 34.781C9.67752 34.5407 9.81251 34.2148 9.81251 33.875V31.3125H12.375C12.7148 31.3125 13.0407 31.1775 13.281 30.9372C13.5213 30.697 13.6563 30.3711 13.6563 30.0313V27.4688H16.2188C16.3871 27.4689 16.5538 27.4359 16.7093 27.3716C16.8648 27.3073 17.0062 27.2129 17.1252 27.094L18.6563 25.5613C19.9379 25.9781 21.2774 26.1895 22.625 26.1875H22.641C25.1738 26.1844 27.6489 25.4308 29.7535 24.0217C31.8581 22.6126 33.4979 20.6114 34.4657 18.2708C35.4335 15.9302 35.6859 13.3553 35.191 10.8714C34.6961 8.3874 33.476 6.10586 31.6851 4.31496ZM32.875 13.7113C32.7004 19.1711 28.1104 23.6186 22.6426 23.625H22.625C21.328 23.6272 20.0425 23.382 18.8373 22.9027C18.6016 22.8004 18.3405 22.7713 18.088 22.8193C17.8355 22.8673 17.6033 22.9901 17.4215 23.1718L15.6886 24.9063H12.375C12.0352 24.9063 11.7093 25.0412 11.469 25.2815C11.2288 25.5218 11.0938 25.8477 11.0938 26.1875V28.75H8.53126C8.19145 28.75 7.86556 28.885 7.62528 29.1253C7.385 29.3656 7.25001 29.6914 7.25001 30.0313V32.5938H3.40626V27.9989L12.8283 18.5785C13.0099 18.3967 13.1327 18.1645 13.1807 17.912C13.2287 17.6595 13.1996 17.3984 13.0973 17.1627C12.6164 15.9535 12.3713 14.6635 12.375 13.3622C12.375 7.89445 16.829 3.30438 22.2887 3.12981C23.6911 3.083 25.0882 3.32466 26.3935 3.8398C27.6987 4.35495 28.8843 5.13261 29.8768 6.12461C30.8692 7.11662 31.6474 8.30184 32.1632 9.60685C32.6789 10.9119 32.9212 12.3089 32.875 13.7113ZM27.75 10.1719C27.75 10.552 27.6373 10.9236 27.4261 11.2396C27.2149 11.5557 26.9148 11.802 26.5636 11.9475C26.2124 12.0929 25.826 12.131 25.4532 12.0568C25.0804 11.9827 24.7379 11.7996 24.4692 11.5308C24.2004 11.2621 24.0173 10.9196 23.9432 10.5468C23.869 10.174 23.9071 9.78758 24.0526 9.43641C24.198 9.08523 24.4444 8.78507 24.7604 8.57389C25.0765 8.36272 25.448 8.25 25.8281 8.25C26.3379 8.25 26.8267 8.45248 27.1871 8.81291C27.5475 9.17333 27.75 9.66216 27.75 10.1719Z" fill="black"/>
</svg>
