<svg width="22" height="25" viewBox="0 0 22 25" fill="none" xmlns="http://www.w3.org/2000/svg">
<path d="M20.7775 11.114L3.34586 0.871861C3.05183 0.701469 2.71434 0.627351 2.37836 0.659384C2.04238 0.691416 1.72385 0.828077 1.46522 1.05116C1.20659 1.27424 1.02013 1.57315 0.930692 1.90807C0.84125 2.24299 0.853069 2.59802 0.964575 2.92585L4.14274 12.6094L0.964575 22.294C0.876127 22.5517 0.849014 22.8275 0.885509 23.0982C0.922005 23.3689 1.02104 23.6267 1.17432 23.8499C1.32759 24.073 1.53063 24.2551 1.76639 24.3808C2.00215 24.5065 2.26376 24.5722 2.52927 24.5723C2.81773 24.5716 3.10114 24.4944 3.35209 24.348L20.7754 14.0887C21.0324 13.9405 21.2465 13.7246 21.3956 13.4631C21.5448 13.2017 21.6237 12.904 21.6242 12.6008C21.6248 12.2976 21.5469 11.9996 21.3986 11.7376C21.2504 11.4756 21.0371 11.2589 20.7806 11.1097L20.7775 11.114ZM2.52927 22.8633C2.52972 22.859 2.52972 22.8547 2.52927 22.8505L5.61509 13.4639H11.6601C11.8803 13.4639 12.0914 13.3738 12.2471 13.2136C12.4028 13.0533 12.4902 12.836 12.4902 12.6094C12.4902 12.3828 12.4028 12.1654 12.2471 12.0052C12.0914 11.8449 11.8803 11.7549 11.6601 11.7549H5.61509L2.5355 2.37256C2.53448 2.36652 2.53237 2.36072 2.52927 2.35547L19.9609 12.5912L2.52927 22.8633Z" fill="white"/>
</svg>
