<svg width="35" height="33" viewBox="0 0 35 33" fill="none" xmlns="http://www.w3.org/2000/svg">
<path d="M33.9833 30.9531C31.5441 26.7362 27.7852 23.7125 23.3985 22.2791C25.5684 20.9873 27.2542 19.019 28.1972 16.6765C29.1401 14.3339 29.288 11.7465 28.6181 9.31178C27.9483 6.87702 26.4977 4.72945 24.4892 3.19889C22.4806 1.66832 20.0252 0.839394 17.5 0.839394C14.9748 0.839394 12.5193 1.66832 10.5108 3.19889C8.50229 4.72945 7.05171 6.87702 6.38185 9.31178C5.71199 11.7465 5.85988 14.3339 6.80281 16.6765C7.74575 19.019 9.43159 20.9873 11.6014 22.2791C7.21476 23.7109 3.45589 26.7346 1.01671 30.9531C0.927261 31.099 0.86793 31.2613 0.842218 31.4304C0.816506 31.5996 0.824933 31.7722 0.867003 31.938C0.909072 32.1038 0.983932 32.2596 1.08717 32.396C1.1904 32.5325 1.31991 32.6469 1.46807 32.7324C1.61623 32.818 1.78002 32.873 1.94979 32.8943C2.11956 32.9155 2.29187 32.9026 2.45655 32.8562C2.62123 32.8097 2.77494 32.7308 2.90862 32.624C3.04229 32.5172 3.15323 32.3847 3.23487 32.2344C6.25222 27.0197 11.5854 23.9062 17.5 23.9062C23.4146 23.9062 28.7478 27.0197 31.7651 32.2344C31.8468 32.3847 31.9577 32.5172 32.0914 32.624C32.225 32.7308 32.3787 32.8097 32.5434 32.8562C32.7081 32.9026 32.8804 32.9155 33.0502 32.8943C33.22 32.873 33.3838 32.818 33.5319 32.7324C33.6801 32.6469 33.8096 32.5325 33.9128 32.396C34.016 32.2596 34.0909 32.1038 34.133 31.938C34.175 31.7722 34.1835 31.5996 34.1578 31.4304C34.132 31.2613 34.0727 31.099 33.9833 30.9531ZM8.53124 12.375C8.53124 10.6011 9.05725 8.86713 10.0427 7.39223C11.0282 5.91733 12.429 4.76778 14.0678 4.08896C15.7066 3.41013 17.5099 3.23252 19.2497 3.57858C20.9895 3.92464 22.5875 4.77883 23.8419 6.03314C25.0962 7.28744 25.9503 8.88552 26.2964 10.6253C26.6425 12.3651 26.4649 14.1684 25.786 15.8072C25.1072 17.446 23.9577 18.8467 22.4828 19.8322C21.0079 20.8177 19.2738 21.3438 17.5 21.3438C15.1221 21.3412 12.8424 20.3955 11.1609 18.7141C9.47952 17.0326 8.53378 14.7529 8.53124 12.375Z" fill="black"/>
</svg>
