<svg width="12" height="12" viewBox="0 0 12 12" fill="none" xmlns="http://www.w3.org/2000/svg">
<path d="M11.4605 10.6644C11.5128 10.7166 11.5543 10.7787 11.5825 10.8469C11.6108 10.9152 11.6254 10.9884 11.6254 11.0623C11.6254 11.1362 11.6108 11.2094 11.5825 11.2777C11.5543 11.346 11.5128 11.408 11.4605 11.4603C11.4083 11.5126 11.3462 11.554 11.2779 11.5823C11.2097 11.6106 11.1365 11.6251 11.0626 11.6251C10.9887 11.6251 10.9155 11.6106 10.8472 11.5823C10.7789 11.554 10.7169 11.5126 10.6646 11.4603L6.00007 6.79506L1.33554 11.4603C1.22999 11.5658 1.08684 11.6251 0.937569 11.6251C0.788301 11.6251 0.645148 11.5658 0.5396 11.4603C0.434052 11.3547 0.374756 11.2116 0.374756 11.0623C0.374756 10.9131 0.434052 10.7699 0.5396 10.6644L5.20483 5.99982L0.5396 1.33529C0.434052 1.22975 0.374756 1.08659 0.374756 0.937324C0.374756 0.788057 0.434052 0.644904 0.5396 0.539356C0.645148 0.433808 0.788301 0.374512 0.937569 0.374512C1.08684 0.374512 1.22999 0.433808 1.33554 0.539356L6.00007 5.20459L10.6646 0.539356C10.7701 0.433808 10.9133 0.374512 11.0626 0.374512C11.2118 0.374512 11.355 0.433808 11.4605 0.539356C11.5661 0.644904 11.6254 0.788057 11.6254 0.937324C11.6254 1.08659 11.5661 1.22975 11.4605 1.33529L6.7953 5.99982L11.4605 10.6644Z" fill="#FF4E1D"/>
</svg>
